<svg width="3345" height="593" viewBox="0 0 3345 593" fill="none" xmlns="http://www.w3.org/2000/svg">
<mask id="mask0_2001_2" style="mask-type:alpha" maskUnits="userSpaceOnUse" x="0" y="0" width="593" height="593">
<circle cx="296.5" cy="296.5" r="296.5" fill="#F8F8F8"/>
</mask>
<g mask="url(#mask0_2001_2)">
<circle cx="296.5" cy="296.5" r="289" fill="#1B263B" stroke="white" stroke-width="15"/>
<path d="M471.02 167.243H488.736V760.052H471.02V167.243Z" fill="white"/>
<circle cx="479.915" cy="163.619" r="42.1885" fill="white"/>
<path d="M103.069 419.357H119.423V-168H103.069V419.357Z" fill="white"/>
<circle cx="42.1885" cy="42.1885" r="42.1885" transform="matrix(1 0 0 -1 69 466.532)" fill="white"/>
<path d="M196.954 442.063V406.06H325.297C335.18 406.06 343.651 403.801 350.711 399.282C357.77 394.482 363.277 388.411 367.23 381.069C371.184 373.727 373.16 365.961 373.16 357.772C373.16 349.301 371.184 341.535 367.23 334.476C363.559 327.134 358.194 321.345 351.134 317.109C344.357 312.591 336.027 310.332 326.144 310.332H270.232C253.572 310.332 238.888 306.944 226.181 300.167C213.474 293.107 203.449 283.506 196.107 271.364C189.048 258.939 185.518 244.961 185.518 229.43C185.518 213.617 188.906 199.356 195.684 186.649C202.743 173.942 212.485 163.918 224.91 156.576C237.617 149.234 252.16 145.563 268.538 145.563H394.339V181.566H272.35C263.031 181.566 254.842 183.825 247.783 188.344C240.723 192.579 235.358 198.227 231.687 205.286C228.016 212.064 226.181 219.405 226.181 227.312C226.181 234.936 227.875 242.278 231.264 249.338C234.935 256.115 240.159 261.621 246.936 265.857C253.995 270.093 262.043 272.211 271.079 272.211H328.262C346.052 272.211 361.3 275.741 374.007 282.8C386.715 289.86 396.457 299.461 403.234 311.603C410.011 323.745 413.4 337.582 413.4 353.113C413.4 370.338 409.87 385.728 402.81 399.282C396.033 412.554 386.291 423.002 373.584 430.627C360.877 438.251 346.334 442.063 329.956 442.063H196.954Z" fill="white"/>
<path d="M425.914 163.619L358.835 222L358.835 163.619L358.835 104.556L425.914 163.619Z" fill="white"/>
<path d="M165.19 424.344L232.269 478.5L232.269 424.344L232.269 370L165.19 424.344Z" fill="white"/>
</g>
<path d="M828.188 429.402C816.011 429.402 803.713 426.723 791.293 421.365C778.873 416.251 767.914 409.067 758.416 399.813C749.162 390.558 742.951 380.086 739.785 368.397L758.416 361.091C763.043 375.946 772.054 387.758 785.448 396.525C799.086 405.049 813.333 409.31 828.188 409.31C839.391 409.31 849.619 406.997 858.873 402.37C868.128 397.499 875.434 390.802 880.791 382.278C886.149 373.511 888.828 363.648 888.828 352.689C888.828 340.999 885.54 331.38 878.965 323.83C872.633 316.281 861.796 308.731 846.453 301.182C825.753 291.197 810.045 283.038 799.329 276.707C788.614 270.375 779.847 262.947 773.028 254.423C766.209 245.656 762.799 235.306 762.799 223.373C762.799 211.683 765.965 201.333 772.297 192.322C778.629 183.311 787.031 176.371 797.503 171.5C808.218 166.629 819.664 164.194 831.841 164.194C842.069 164.194 851.567 166.142 860.334 170.039C869.345 173.692 876.286 178.928 881.157 185.747C886.271 192.322 888.584 199.75 888.097 208.03L867.64 206.934C867.64 199.872 863.744 194.392 855.951 190.496C848.401 186.356 840.121 184.286 831.11 184.286C818.447 184.286 807.488 187.939 798.233 195.245C789.223 202.551 784.717 211.561 784.717 222.277C784.717 230.557 787.518 237.985 793.119 244.56C798.721 251.136 805.296 256.737 812.845 261.364C820.639 265.748 830.38 270.618 842.069 275.976C844.505 277.194 847.062 278.411 849.741 279.629C852.42 280.847 854.977 282.186 857.412 283.647C876.651 293.876 890.289 304.348 898.326 315.063C906.606 325.535 910.746 338.199 910.746 353.054C910.746 367.91 906.849 381.182 899.056 392.872C891.507 404.318 881.4 413.329 868.736 419.904C856.073 426.236 842.557 429.402 828.188 429.402ZM1028.67 423.557C1002.13 423.557 981.186 415.399 965.843 399.082C950.744 382.765 943.195 360.482 943.195 332.232C943.195 312.749 946.848 295.58 954.154 280.725C961.46 265.626 971.81 254.058 985.204 246.021C998.599 237.741 1014.06 233.601 1031.6 233.601C1041.34 233.601 1050.35 235.428 1058.63 239.081C1067.15 242.49 1075.92 248.091 1084.93 255.884L1070.32 269.035C1064.72 263.434 1058.87 259.416 1052.78 256.98C1046.94 254.545 1039.88 253.327 1031.6 253.327C1011.38 253.327 995.189 260.633 983.012 275.245C971.079 289.614 965.113 308.975 965.113 333.328C965.113 355.733 970.714 373.146 981.917 385.566C993.363 397.743 1009.56 403.831 1030.5 403.831C1048.28 403.831 1067.52 398.108 1088.22 386.662L1097.72 402.004C1087.73 408.823 1076.65 414.181 1064.47 418.078C1052.54 421.731 1040.61 423.557 1028.67 423.557ZM1207.81 234.697C1215.11 234.697 1222.42 235.793 1229.73 237.985V258.442C1222.66 256.737 1215.6 255.884 1208.54 255.884C1196.12 255.884 1186.01 258.929 1178.22 265.017C1170.43 271.105 1163.49 279.751 1157.4 290.953V421H1135.48V293.145C1135.48 273.906 1130.37 259.781 1120.14 250.77L1134.75 236.158C1139.13 238.837 1143.27 242.855 1147.17 248.213C1151.07 253.571 1153.87 259.537 1155.57 266.113C1162.39 254.91 1169.21 247.239 1176.03 243.099C1184.55 237.498 1195.15 234.697 1207.81 234.697ZM1390.89 423.922C1386.27 420.269 1382.49 416.251 1379.57 411.868C1376.89 407.484 1374.33 401.761 1371.9 394.698C1367.03 404.196 1359.72 411.624 1349.98 416.982C1340.48 422.096 1328.91 424.653 1315.28 424.653C1296.04 424.653 1280.57 419.539 1268.88 409.31C1257.44 399.082 1251.71 385.201 1251.71 367.666C1251.71 349.158 1258.17 334.789 1271.07 324.561C1284.23 314.332 1302.73 309.218 1326.6 309.218H1368.97V296.067C1368.97 281.455 1365.81 270.618 1359.48 263.556C1353.15 256.493 1343.4 252.962 1330.25 252.962C1320.51 252.962 1310.53 254.789 1300.3 258.442C1290.07 261.851 1280.94 266.6 1272.9 272.688L1263.04 256.615C1272.05 249.065 1282.4 243.342 1294.09 239.446C1306.02 235.306 1318.2 233.236 1330.62 233.236C1350.34 233.236 1365.32 238.35 1375.55 248.578C1385.78 258.563 1390.89 273.054 1390.89 292.049V368.397C1390.89 387.149 1395.64 401.639 1405.14 411.868L1390.89 423.922ZM1315.64 404.927C1331.96 404.927 1344.86 400.421 1354.36 391.411C1364.1 382.4 1368.97 370.71 1368.97 356.342V328.944H1331.71C1311.01 328.944 1296.16 331.989 1287.15 338.077C1278.14 343.922 1273.63 353.663 1273.63 367.301C1273.63 379.478 1277.28 388.854 1284.59 395.429C1291.9 401.761 1302.25 404.927 1315.64 404.927ZM1522.16 235.428C1538.97 235.428 1553.21 239.689 1564.9 248.213C1576.84 256.493 1585.73 267.696 1591.57 281.821C1597.66 295.946 1600.7 311.654 1600.7 328.944C1600.7 347.696 1597.17 364.257 1590.11 378.625C1583.05 392.994 1572.82 404.318 1559.42 412.598C1546.03 420.635 1530.08 424.653 1511.57 424.653C1505.48 424.653 1490.99 423.07 1468.1 419.904V515.978H1447.28V292.414C1447.28 273.175 1442.16 259.05 1431.93 250.04L1446.55 235.428C1450.69 238.35 1454.71 242.368 1458.6 247.483C1462.5 252.597 1465.3 258.198 1467 264.286C1477.48 245.047 1495.86 235.428 1522.16 235.428ZM1509.74 404.927C1532.64 404.927 1549.8 398.351 1561.25 385.201C1572.94 371.806 1578.79 353.663 1578.79 330.771C1578.79 309.096 1573.79 291.075 1563.81 276.707C1554.07 262.338 1540.43 255.154 1522.89 255.154C1509.01 255.154 1496.59 259.416 1485.63 267.939C1474.92 276.463 1469.07 287.544 1468.1 301.182V401.639C1490.5 403.831 1504.39 404.927 1509.74 404.927ZM1654.33 337.346C1654.57 354.394 1658.71 369.98 1666.75 384.105C1674.79 398.23 1690.86 405.292 1714.97 405.292C1725.44 405.292 1735.06 403.953 1743.83 401.274C1752.84 398.595 1762.58 394.211 1773.05 388.123L1782.55 403.466C1772.81 410.041 1761.97 415.277 1750.04 419.174C1738.11 423.07 1725.93 425.018 1713.51 425.018C1687.94 425.018 1667.97 416.86 1653.6 400.543C1639.48 383.983 1632.41 362.308 1632.41 335.52C1632.41 318.229 1635.58 302.034 1641.91 286.935C1648.24 271.592 1657.62 259.172 1670.04 249.674C1682.46 240.177 1697.07 235.428 1713.87 235.428C1728 235.428 1740.79 238.837 1752.23 245.656C1763.92 252.231 1773.05 261.364 1779.63 273.054C1786.45 284.5 1789.86 297.285 1789.86 311.41C1789.86 315.307 1789.74 318.838 1789.49 322.004C1789.25 324.926 1789.01 327.483 1788.76 329.675L1788.03 337.346H1654.33ZM1767.57 317.62C1767.82 315.915 1767.94 313.48 1767.94 310.314C1767.94 300.086 1765.5 290.831 1760.63 282.551C1755.76 274.028 1749.19 267.33 1740.91 262.46C1732.63 257.589 1723.49 255.154 1713.51 255.154C1698.65 255.154 1685.87 260.633 1675.15 271.592C1664.68 282.308 1658.11 297.65 1655.43 317.62H1767.57ZM1923.43 164.194H1930.37L2037.77 421H2014.39L1978.95 338.077H1874.84L1840.14 421H1816.76L1923.43 164.194ZM1935.85 232.14C1931.95 222.399 1928.91 212.901 1926.72 203.647C1923.79 215.093 1920.87 224.59 1917.95 232.14L1883.61 317.62H1970.19L1935.85 232.14ZM2130.32 423.922C2109.87 423.922 2094.28 418.808 2083.56 408.58C2073.09 398.351 2067.86 383.739 2067.86 364.744V238.35H2089.77V360.726C2089.77 374.363 2092.94 385.079 2099.27 392.872C2105.6 400.421 2116.32 404.196 2131.42 404.196C2144.08 404.196 2154.55 401.152 2162.83 395.064C2171.36 388.732 2180.25 379.234 2189.5 366.57V238.35H2211.42V367.301C2211.42 386.297 2216.17 400.665 2225.67 410.406L2212.15 423.557C2206.79 419.661 2202.29 414.668 2198.63 408.58C2195.22 402.248 2192.91 395.916 2191.69 389.584C2183.9 401.761 2174.89 410.528 2164.66 415.886C2154.68 421.244 2143.23 423.922 2130.32 423.922ZM2321.32 426.114C2303.79 426.114 2290.64 421.487 2281.87 412.233C2273.34 402.979 2269.08 388.367 2269.08 368.397V192.688H2291V238.35H2348.35V258.076H2291V368.397C2291 383.739 2293.8 393.968 2299.4 399.082C2305.25 403.953 2312.43 406.388 2320.95 406.388C2326.07 406.388 2330.33 406.144 2333.74 405.657C2337.15 404.927 2340.92 403.344 2345.06 400.909L2354.93 417.712C2345.92 423.314 2334.71 426.114 2321.32 426.114ZM2462.87 424.653C2445.58 424.653 2430.12 420.635 2416.48 412.598C2403.09 404.562 2392.61 393.359 2385.07 378.991C2377.52 364.622 2373.74 348.305 2373.74 330.04C2373.74 311.775 2377.52 295.459 2385.07 281.09C2392.86 266.478 2403.45 255.154 2416.85 247.117C2430.48 238.837 2445.95 234.697 2463.24 234.697C2480.29 234.697 2495.51 238.837 2508.9 247.117C2522.54 255.154 2533.13 266.356 2540.68 280.725C2548.48 295.093 2552.37 311.41 2552.37 329.675C2552.37 347.94 2548.48 364.257 2540.68 378.625C2533.13 392.994 2522.54 404.318 2508.9 412.598C2495.51 420.635 2480.16 424.653 2462.87 424.653ZM2463.24 404.927C2483.45 404.927 2499.65 397.986 2511.82 384.105C2524.24 370.223 2530.45 352.08 2530.45 329.675C2530.45 314.819 2527.65 301.79 2522.05 290.588C2516.45 279.142 2508.54 270.253 2498.31 263.921C2488.08 257.589 2476.39 254.423 2463.24 254.423C2449.84 254.423 2438.03 257.589 2427.81 263.921C2417.58 270.253 2409.66 279.264 2404.06 290.953C2398.46 302.399 2395.66 315.428 2395.66 330.04C2395.66 344.652 2398.46 357.681 2404.06 369.127C2409.66 380.33 2417.58 389.097 2427.81 395.429C2438.03 401.761 2449.84 404.927 2463.24 404.927ZM2596.68 292.049C2596.68 273.297 2591.69 258.929 2581.7 248.944L2595.22 235.428C2605.69 243.221 2612.39 253.571 2615.31 266.478C2622.13 255.763 2630.29 247.848 2639.78 242.734C2649.53 237.376 2660.12 234.697 2671.57 234.697C2683.5 234.697 2693.85 237.498 2702.62 243.099C2711.63 248.7 2718.32 256.859 2722.71 267.574C2729.53 256.859 2737.93 248.7 2747.91 243.099C2758.14 237.498 2768.98 234.697 2780.43 234.697C2796.99 234.697 2810.5 240.055 2820.97 250.77C2831.69 261.486 2836.93 275.976 2836.68 294.241L2835.22 421H2814.03L2814.76 298.259C2814.76 269.035 2802.71 254.423 2778.6 254.423C2757.17 254.423 2740.12 266.6 2727.46 290.953V421H2705.54V298.259C2705.54 284.621 2702.49 273.906 2696.41 266.113C2690.56 258.076 2681.92 254.058 2670.47 254.058C2659.27 254.058 2648.8 257.589 2639.05 264.652C2629.56 271.714 2622.74 280.238 2618.6 290.223V421H2596.68V292.049ZM3014.05 423.922C3009.42 420.269 3005.65 416.251 3002.73 411.868C3000.05 407.484 2997.49 401.761 2995.06 394.698C2990.19 404.196 2982.88 411.624 2973.14 416.982C2963.64 422.096 2952.07 424.653 2938.43 424.653C2919.2 424.653 2903.73 419.539 2892.04 409.31C2880.6 399.082 2874.87 385.201 2874.87 367.666C2874.87 349.158 2881.33 334.789 2894.23 324.561C2907.38 314.332 2925.89 309.218 2949.76 309.218H2992.13V296.067C2992.13 281.455 2988.97 270.618 2982.64 263.556C2976.3 256.493 2966.56 252.962 2953.41 252.962C2943.67 252.962 2933.69 254.789 2923.46 258.442C2913.23 261.851 2904.1 266.6 2896.06 272.688L2886.2 256.615C2895.21 249.065 2905.56 243.342 2917.25 239.446C2929.18 235.306 2941.36 233.236 2953.78 233.236C2973.5 233.236 2988.48 238.35 2998.71 248.578C3008.94 258.563 3014.05 273.054 3014.05 292.049V368.397C3014.05 387.149 3018.8 401.639 3028.3 411.868L3014.05 423.922ZM2938.8 404.927C2955.12 404.927 2968.02 400.421 2977.52 391.411C2987.26 382.4 2992.13 370.71 2992.13 356.342V328.944H2954.87C2934.17 328.944 2919.32 331.989 2910.31 338.077C2901.3 343.922 2896.79 353.663 2896.79 367.301C2896.79 379.478 2900.44 388.854 2907.75 395.429C2915.06 401.761 2925.41 404.927 2938.8 404.927ZM3121.13 426.114C3103.59 426.114 3090.44 421.487 3081.67 412.233C3073.15 402.979 3068.89 388.367 3068.89 368.397V192.688H3090.81V238.35H3148.16V258.076H3090.81V368.397C3090.81 383.739 3093.61 393.968 3099.21 399.082C3105.05 403.953 3112.24 406.388 3120.76 406.388C3125.88 406.388 3130.14 406.144 3133.55 405.657C3136.96 404.927 3140.73 403.344 3144.87 400.909L3154.73 417.712C3145.72 423.314 3134.52 426.114 3121.13 426.114ZM3194.37 337.346C3194.61 354.394 3198.75 369.98 3206.79 384.105C3214.83 398.23 3230.9 405.292 3255.01 405.292C3265.48 405.292 3275.1 403.953 3283.87 401.274C3292.88 398.595 3302.62 394.211 3313.09 388.123L3322.59 403.466C3312.85 410.041 3302.01 415.277 3290.08 419.174C3278.15 423.07 3265.97 425.018 3253.55 425.018C3227.98 425.018 3208.01 416.86 3193.64 400.543C3179.51 383.983 3172.45 362.308 3172.45 335.52C3172.45 318.229 3175.62 302.034 3181.95 286.935C3188.28 271.592 3197.66 259.172 3210.08 249.674C3222.5 240.177 3237.11 235.428 3253.91 235.428C3268.04 235.428 3280.82 238.837 3292.27 245.656C3303.96 252.231 3313.09 261.364 3319.67 273.054C3326.49 284.5 3329.9 297.285 3329.9 311.41C3329.9 315.307 3329.77 318.838 3329.53 322.004C3329.29 324.926 3329.04 327.483 3328.8 329.675L3328.07 337.346H3194.37ZM3307.61 317.62C3307.86 315.915 3307.98 313.48 3307.98 310.314C3307.98 300.086 3305.54 290.831 3300.67 282.551C3295.8 274.028 3289.23 267.33 3280.95 262.46C3272.67 257.589 3263.53 255.154 3253.55 255.154C3238.69 255.154 3225.91 260.633 3215.19 271.592C3204.72 282.308 3198.14 297.65 3195.47 317.62H3307.61Z" fill="#1B2A41"/>
</svg>
